<svg width="14" height="22" viewBox="0 0 14 22" fill="none" xmlns="http://www.w3.org/2000/svg">
<path d="M1.98551 8.58593C2.56352 8.12988 3.2008 7.75586 3.88989 7.47113C4.07514 7.39391 4.26535 7.32394 4.45305 7.26361V5.36218C4.45305 4.0109 5.5769 2.91299 6.9601 2.91299H7.03667C8.41988 2.91299 9.54373 4.0109 9.54373 5.36218V7.2612C9.73392 7.32394 9.92411 7.39391 10.1094 7.47113C10.7985 7.75589 11.4358 8.1299 12.0137 8.58593V5.36218C12.0137 2.68134 9.78085 0.5 7.03914 0.5H6.96257C4.2184 0.5 1.98551 2.68134 1.98551 5.36218V8.58593Z" fill="#585858"/>
<path fill-rule="evenodd" clip-rule="evenodd" d="M7.00001 21.4998C10.8656 21.4998 14 18.4377 14 14.6614C14 12.8058 13.2442 11.1215 12.0141 9.88845C11.3225 9.19353 10.4827 8.64337 9.54409 8.28625C8.75616 7.98462 7.8966 7.82054 6.99999 7.82054C6.1034 7.82054 5.24382 7.98462 4.45589 8.28625C3.51728 8.64576 2.67748 9.19594 1.98588 9.88845C0.758316 11.1215 0 12.8058 0 14.6614C0 18.4401 3.13446 21.4998 7.00001 21.4998ZM7.0445 11.5655C8.00039 11.5872 8.77844 12.3473 8.80314 13.2811C8.80559 13.3994 8.79573 13.5152 8.77597 13.6262C8.68703 14.1281 8.38321 14.5552 7.95837 14.8158C7.78303 14.9244 7.69658 15.1271 7.73857 15.3249L8.27453 17.8079C8.30667 17.9599 8.19055 18.0999 8.03247 18.0999H5.96758C5.80947 18.0999 5.69336 17.9575 5.72549 17.8079L6.26151 15.3249C6.30599 15.1295 6.2171 14.9268 6.04173 14.8182C5.61684 14.5576 5.31308 14.1281 5.22411 13.6286C5.20682 13.5321 5.19694 13.4307 5.19694 13.327C5.19694 12.3401 6.02935 11.5413 7.0445 11.5655Z" fill="#585858"/>
</svg>
