<svg width="16" height="17" viewBox="0 0 16 17" fill="none" xmlns="http://www.w3.org/2000/svg">
<g clip-path="url(#clip0_3723:94929)">
<path d="M8.03418 0.5V2.63839V3.95633V6.09142L5.23682 3.29736L8.03418 0.5Z" fill="white"/>
<path d="M8 2.5C9.18669 2.5 10.3467 2.85189 11.3334 3.51118C12.3201 4.17047 13.0892 5.10754 13.5433 6.2039C13.9974 7.30026 14.1162 8.50666 13.8847 9.67054C13.6532 10.8344 13.0818 11.9035 12.2426 12.7426C11.4035 13.5818 10.3344 14.1532 9.17054 14.3847C8.00666 14.6162 6.80026 14.4974 5.7039 14.0433C4.60754 13.5892 3.67047 12.8201 3.01118 11.8334C2.35189 10.8467 2 9.68669 2 8.5H3.45938C3.45938 9.39805 3.72568 10.2759 4.22461 11.0226C4.72354 11.7693 5.43269 12.3513 6.26238 12.695C7.09207 13.0387 8.00504 13.1286 8.88583 12.9534C9.76662 12.7782 10.5757 12.3457 11.2107 11.7107C11.8457 11.0757 12.2782 10.2666 12.4534 9.38583C12.6286 8.50504 12.5387 7.59207 12.195 6.76238C11.8513 5.93269 11.2693 5.22354 10.5226 4.72461C9.77593 4.22568 8.89805 3.95938 8 3.95938V2.5Z" fill="white"/>
</g>
<defs>
<clipPath id="clip0_3723:94929">
<rect width="16" height="16" fill="white" transform="translate(0 0.5)"/>
</clipPath>
</defs>
</svg>
